<svg width="540" height="280" viewBox="0 0 540 280" fill="none" xmlns="http://www.w3.org/2000/svg">
<path fill-rule="evenodd" clip-rule="evenodd" d="M478.931 121.29L538.243 211.996C538.804 212.684 539.144 213.569 539.143 214.531C539.143 216.743 537.339 218.54 535.106 218.54H535.082H484.545C483.162 218.54 481.888 217.844 481.14 216.693L443.264 157.855L432.523 169.12V214.531C432.523 216.743 430.713 218.54 428.485 218.54H384.338C382.109 218.54 380.304 216.743 380.304 214.531V4.0018C380.304 1.78911 382.111 0 384.338 0H428.485C430.713 0 432.523 1.79022 432.523 4.0018V105.854L477.21 57.2548C477.973 56.4221 479.057 55.9484 480.184 55.9484H533.052C534.671 55.9484 536.136 56.9059 536.767 58.3885C537.399 59.8699 537.076 61.5799 535.951 62.7382L478.931 121.29ZM185.756 137.531C185.756 90.1632 224.662 53.0636 274.321 53.0636C298.515 53.0636 320.851 61.7338 337.178 77.4802C353.374 93.094 362.298 114.21 362.298 136.957V137.532C362.298 184.901 323.393 222 273.734 222C249.538 222 227.205 213.325 210.875 197.578C194.677 181.97 185.756 160.842 185.756 138.107V137.531ZM273.735 98.8514C256.239 98.8514 237.396 110.779 237.396 136.957V137.532C237.396 159.577 253.272 176.2 274.321 176.2C291.816 176.2 310.659 164.285 310.659 138.107V137.531C310.659 115.481 294.783 98.8514 273.735 98.8514ZM132.723 57.5559C140.451 61.3291 146.899 66.4032 151.894 72.6289C156.843 78.7967 160.511 85.9676 162.813 93.9377C165.06 101.77 166.202 109.922 166.202 118.166V214.531C166.202 216.745 164.392 218.54 162.165 218.54H123.347C121.118 218.54 119.31 216.743 119.31 214.531V129.089C119.31 103.161 100.363 91.9825 84.4829 91.9825C74.2159 91.9825 46.8966 95.66 46.8966 129.732V214.531C46.8966 216.745 45.0937 218.54 42.8595 218.54H4.03715C1.80191 218.54 0 216.743 0 214.531V60.3482C0 58.1355 1.80303 56.3463 4.03715 56.3463H40.9206C43.1491 56.3463 44.9533 58.1366 44.9533 60.3482V71.6034C48.1888 68.0452 52.2551 64.7401 57.3308 61.4674C67.2531 55.0812 83.4264 51.8441 97.0277 51.8441C110.509 51.8441 125.081 53.8215 132.723 57.5559Z" fill="url(#paint0_linear_32_74)"/>
<path d="M200 279.573V252.427H213.626C215.453 252.427 217.077 252.801 218.498 253.551C219.919 254.275 221.023 255.296 221.809 256.615C222.621 257.908 223.027 259.394 223.027 261.075C223.027 262.781 222.571 264.307 221.657 265.651C220.744 266.995 219.538 268.017 218.041 268.715L223.865 279.573H216.557L211.533 269.684H206.547V279.573H200ZM206.547 264.255H213.017C214.032 264.255 214.844 263.97 215.453 263.402C216.087 262.833 216.405 262.096 216.405 261.191C216.405 260.286 216.087 259.549 215.453 258.981C214.844 258.412 214.032 258.127 213.017 258.127H206.547V264.255Z" fill="#E95231"/>
<path d="M233.432 279.573V252.427H254.442V258.205H239.979V263.091H249.532V268.676H239.979V273.795H254.594V279.573H233.432Z" fill="#E95231"/>
<path d="M277.325 279.961C275.295 279.961 273.404 279.612 271.653 278.914C269.928 278.19 268.418 277.195 267.124 275.928C265.83 274.661 264.815 273.187 264.079 271.507C263.368 269.801 263.013 267.965 263.013 266C263.013 264.009 263.368 262.174 264.079 260.493C264.815 258.787 265.83 257.3 267.124 256.033C268.443 254.766 269.966 253.784 271.691 253.086C273.442 252.362 275.32 252 277.325 252C278.796 252 280.243 252.22 281.664 252.659C283.085 253.099 284.391 253.719 285.584 254.521C286.802 255.296 287.817 256.227 288.629 257.313L284.214 261.734C283.275 260.519 282.222 259.614 281.055 259.019C279.913 258.425 278.669 258.127 277.325 258.127C276.259 258.127 275.256 258.334 274.318 258.748C273.404 259.136 272.605 259.679 271.92 260.377C271.235 261.075 270.702 261.902 270.321 262.859C269.941 263.815 269.75 264.862 269.75 266C269.75 267.112 269.941 268.146 270.321 269.102C270.727 270.033 271.273 270.861 271.958 271.584C272.668 272.283 273.493 272.825 274.432 273.213C275.396 273.601 276.436 273.795 277.553 273.795C278.847 273.795 280.04 273.511 281.131 272.942C282.247 272.373 283.249 271.533 284.138 270.421L288.439 274.726C287.627 275.786 286.624 276.717 285.432 277.518C284.239 278.294 282.945 278.901 281.549 279.341C280.154 279.754 278.745 279.961 277.325 279.961Z" fill="#E95231"/>
<path d="M310.978 280C308.973 280 307.108 279.651 305.383 278.953C303.657 278.229 302.147 277.234 300.853 275.967C299.559 274.674 298.544 273.187 297.808 271.507C297.098 269.801 296.743 267.965 296.743 266C296.743 264.035 297.098 262.212 297.808 260.532C298.544 258.825 299.559 257.339 300.853 256.072C302.147 254.779 303.657 253.784 305.383 253.086C307.108 252.362 308.973 252 310.978 252C312.982 252 314.847 252.362 316.573 253.086C318.298 253.784 319.808 254.779 321.102 256.072C322.396 257.339 323.399 258.825 324.109 260.532C324.845 262.212 325.213 264.035 325.213 266C325.213 267.965 324.845 269.801 324.109 271.507C323.399 273.187 322.396 274.674 321.102 275.967C319.808 277.234 318.298 278.229 316.573 278.953C314.847 279.651 312.982 280 310.978 280ZM310.978 273.873C312.043 273.873 313.033 273.679 313.947 273.291C314.86 272.877 315.647 272.321 316.306 271.623C316.992 270.925 317.524 270.098 317.905 269.141C318.286 268.159 318.476 267.112 318.476 266C318.476 264.862 318.286 263.815 317.905 262.859C317.524 261.902 316.992 261.075 316.306 260.377C315.647 259.679 314.86 259.136 313.947 258.748C313.033 258.334 312.043 258.127 310.978 258.127C309.912 258.127 308.922 258.334 308.009 258.748C307.095 259.136 306.296 259.679 305.611 260.377C304.951 261.075 304.431 261.902 304.05 262.859C303.67 263.815 303.48 264.862 303.48 266C303.48 267.112 303.67 268.159 304.05 269.141C304.431 270.098 304.951 270.925 305.611 271.623C306.296 272.321 307.095 272.877 308.009 273.291C308.922 273.679 309.912 273.873 310.978 273.873Z" fill="#E95231"/>
<path d="M335.735 279.573V252.427H343.995L350.579 265.224L357.164 252.427H365.424V279.573H359.257V261.075L350.503 277.634L341.749 260.997V279.573H335.735Z" fill="#E95231"/>
<path d="M376.899 279.573V252.427H385.158L391.743 265.224L398.327 252.427H406.587V279.573H400.421V261.075L391.667 277.634L382.912 260.997V279.573H376.899Z" fill="#E95231"/>
<path d="M418.062 279.573V252.427H439.072V258.205H424.609V263.091H434.162V268.676H424.609V273.795H439.224V279.573H418.062Z" fill="#E95231"/>
<path d="M450.119 279.573V252.427H463.745C465.572 252.427 467.196 252.801 468.617 253.551C470.038 254.275 471.141 255.296 471.928 256.615C472.74 257.908 473.146 259.394 473.146 261.075C473.146 262.781 472.689 264.307 471.776 265.651C470.862 266.995 469.657 268.017 468.16 268.715L473.983 279.573H466.676L461.651 269.684H456.665V279.573H450.119ZM456.665 264.255H463.136C464.151 264.255 464.963 263.97 465.572 263.402C466.206 262.833 466.523 262.096 466.523 261.191C466.523 260.286 466.206 259.549 465.572 258.981C464.963 258.412 464.151 258.127 463.136 258.127H456.665V264.255Z" fill="#E95231"/>
<path d="M496.91 279.961C494.88 279.961 492.99 279.612 491.239 278.914C489.514 278.19 488.004 277.195 486.71 275.928C485.416 274.661 484.401 273.187 483.665 271.507C482.954 269.801 482.599 267.965 482.599 266C482.599 264.009 482.954 262.174 483.665 260.493C484.401 258.787 485.416 257.3 486.71 256.033C488.029 254.766 489.552 253.784 491.277 253.086C493.028 252.362 494.906 252 496.91 252C498.382 252 499.828 252.22 501.249 252.659C502.67 253.099 503.977 253.719 505.17 254.521C506.388 255.296 507.403 256.227 508.215 257.313L503.8 261.734C502.861 260.519 501.808 259.614 500.64 259.019C499.499 258.425 498.255 258.127 496.91 258.127C495.845 258.127 494.842 258.334 493.904 258.748C492.99 259.136 492.191 259.679 491.506 260.377C490.82 261.075 490.288 261.902 489.907 262.859C489.526 263.815 489.336 264.862 489.336 266C489.336 267.112 489.526 268.146 489.907 269.102C490.313 270.033 490.859 270.861 491.544 271.584C492.254 272.283 493.079 272.825 494.018 273.213C494.982 273.601 496.022 273.795 497.139 273.795C498.433 273.795 499.625 273.511 500.717 272.942C501.833 272.373 502.835 271.533 503.723 270.421L508.024 274.726C507.212 275.786 506.21 276.717 505.018 277.518C503.825 278.294 502.531 278.901 501.135 279.341C499.74 279.754 498.331 279.961 496.91 279.961Z" fill="#E95231"/>
<path d="M517.838 279.573V252.427H538.848V258.205H524.384V263.091H533.938V268.676H524.384V273.795H539V279.573H517.838Z" fill="#E95231"/>
<defs>
<linearGradient id="paint0_linear_32_74" x1="474.598" y1="23.2488" x2="377.954" y2="263.521" gradientUnits="userSpaceOnUse">
<stop stop-color="#281D86"/>
<stop offset="1" stop-color="#3F31BC"/>
</linearGradient>
</defs>
</svg>
